<?xml version="1.0" standalone="no"?>
<!DOCTYPE svg PUBLIC "-//W3C//DTD SVG 20010904//EN"
 "http://www.w3.org/TR/2001/REC-SVG-20010904/DTD/svg10.dtd">
<svg version="1.0" xmlns="http://www.w3.org/2000/svg"
 width="500.000000pt" height="500.000000pt" viewBox="0 0 500.000000 500.000000"
 preserveAspectRatio="xMidYMid meet">
<metadata>
Created by potrace 1.14, written by Peter Selinger 2001-2017
</metadata>
<g transform="translate(0.000000,500.000000) scale(0.100000,-0.100000)"
fill="#000000" stroke="none">
<path d="M1980 3648 c-83 -78 -270 -250 -295 -273 -108 -98 -224 -205 -251
-230 -47 -45 -99 -92 -314 -290 -107 -98 -215 -198 -240 -221 -25 -24 -58 -55
-75 -70 -16 -15 -77 -70 -135 -124 -99 -92 -179 -165 -239 -219 -14 -13 -56
-51 -92 -85 -114 -106 -270 -250 -302 -277 l-31 -27 74 -81 c40 -45 75 -81 78
-81 3 0 50 42 106 93 127 116 104 94 236 217 275 253 409 377 460 424 30 27
84 77 120 110 36 34 95 88 131 121 134 123 283 261 303 280 12 11 77 72 146
135 194 178 219 201 293 270 89 84 91 85 119 58 13 -13 66 -61 118 -108 52
-47 97 -87 100 -90 3 -3 50 -45 105 -95 55 -49 120 -108 145 -131 25 -22 73
-65 107 -95 34 -30 62 -56 62 -59 2 -11 -5 -17 -289 -278 -25 -23 -47 -42 -50
-42 -3 0 -34 28 -70 61 -80 75 -142 127 -153 129 -5 1 -52 -38 -105 -87 -53
-48 -106 -97 -118 -108 -167 -153 -215 -197 -258 -238 -28 -27 -87 -81 -131
-120 -44 -40 -109 -99 -145 -133 -36 -33 -87 -81 -114 -106 l-50 -45 23 -29
c34 -43 122 -134 130 -134 3 0 13 8 22 18 13 14 128 121 244 227 17 15 57 53
90 84 34 31 114 106 180 166 65 61 144 133 174 161 65 60 48 65 181 -56 120
-110 130 -118 224 -204 44 -39 107 -96 140 -127 34 -31 85 -78 115 -105 30
-27 81 -74 114 -104 32 -30 62 -55 66 -55 13 0 48 32 101 94 l54 63 -34 31
c-34 30 -105 93 -205 186 -28 25 -88 80 -134 121 -45 41 -103 93 -128 116
l-45 41 171 157 171 158 38 -33 c20 -18 80 -71 132 -119 52 -48 246 -223 430
-390 184 -166 355 -321 380 -344 25 -22 58 -52 73 -66 l28 -24 69 74 c38 41
69 80 70 86 0 6 -24 33 -53 60 -69 64 -239 219 -301 275 -28 24 -57 51 -66 59
-41 38 -219 199 -260 235 -25 22 -52 47 -60 55 -8 9 -64 60 -125 114 -60 55
-128 115 -149 134 l-39 36 69 64 c38 36 99 93 135 127 l65 62 25 -19 c13 -11
44 -39 69 -62 25 -23 119 -109 210 -191 91 -82 183 -166 205 -186 77 -70 290
-264 329 -299 22 -19 68 -62 103 -94 35 -32 73 -68 86 -78 12 -11 38 -34 57
-51 19 -18 78 -70 130 -117 52 -47 104 -94 116 -105 11 -11 45 -42 76 -70 126
-114 125 -114 161 -68 10 13 25 30 33 37 8 8 14 19 14 24 0 6 5 12 11 14 6 2
12 19 14 37 2 29 -6 41 -69 104 -60 61 -130 125 -238 219 -13 11 -68 61 -122
111 -54 51 -108 100 -120 110 -19 17 -135 122 -231 209 -22 20 -52 47 -66 60
-80 72 -217 197 -242 220 -16 15 -61 56 -101 91 -39 36 -83 75 -97 88 -14 13
-65 60 -114 104 -49 44 -115 105 -148 135 -95 87 -84 86 -158 16 -36 -33 -117
-108 -179 -166 -63 -58 -130 -120 -149 -137 -19 -18 -36 -33 -39 -33 -6 0 -58
44 -128 109 -33 31 -82 76 -110 100 -27 24 -89 80 -138 125 -99 89 -102 92
-231 210 -169 155 -227 206 -234 206 -3 0 -31 -24 -61 -52z"/>
</g>
</svg>
